<svg width="24" height="24" viewBox="0 0 24 24" fill="none" xmlns="http://www.w3.org/2000/svg">
<path d="M3.53003 11.47L3.53003 13.588C3.5299 14.1443 3.63934 14.6951 3.85211 15.209C4.06488 15.7229 4.37681 16.1899 4.77008 16.5833C5.16335 16.9766 5.63025 17.2887 6.14413 17.5016C6.65801 17.7145 7.2088 17.824 7.76503 17.824L20.47 17.824M3.53003 6.17603L16.235 6.17603C16.7913 6.17589 17.3422 6.28537 17.8562 6.4982C18.3702 6.71104 18.8373 7.02305 19.2306 7.41643C19.624 7.8098 19.936 8.27683 20.1488 8.79082C20.3617 9.30482 20.4712 9.85571 20.471 10.412V12.529" stroke="#0066CC" stroke-width="1.5" stroke-linecap="round" stroke-linejoin="round"/>
<path d="M17.2941 14.647L20.4711 17.823L17.2941 21M6.70605 9.353L3.52905 6.176L6.70605 3" stroke="#0066CC" stroke-width="1.5" stroke-linecap="round" stroke-linejoin="round"/>
</svg>
