<svg width="16" height="16" viewBox="0 0 16 16" fill="none" xmlns="http://www.w3.org/2000/svg">
<g clip-path="url(#clip0_67_520)">
<path d="M7.99996 13C6.98996 13 6.06796 12.82 5.23896 12.529L6.95096 10.816C7.27296 10.936 7.62096 11 7.98196 11C9.63196 11 10.982 9.64999 10.982 7.99999C10.982 7.63799 10.918 7.28999 10.799 6.96899L13.084 4.68399C14.139 5.43842 15.0612 6.36303 15.813 7.41999C15.935 7.58877 16.0006 7.79173 16.0006 7.99999C16.0006 8.20825 15.935 8.41121 15.813 8.57999C15.084 9.61999 12.37 13 7.99996 13ZM9.03896 5.19299L10.761 3.47099C9.87395 3.15872 8.94033 2.99945 7.99996 2.99999C3.62996 2.99999 0.915958 6.37999 0.186958 7.41999C0.064946 7.58877 -0.000732422 7.79173 -0.000732422 7.99999C-0.000732422 8.20825 0.064946 8.41121 0.186958 8.57999C0.568958 9.12399 1.49396 10.31 2.91596 11.316L5.17596 9.05599C5.04832 8.71852 4.9826 8.36079 4.98196 7.99999C4.98196 6.34999 6.33196 4.99999 7.98196 4.99999C8.35396 4.99999 8.70996 5.06799 9.03896 5.19299ZM1.85396 14.854C1.80747 14.9005 1.75228 14.9374 1.69154 14.9625C1.6308 14.9877 1.5657 15.0006 1.49996 15.0006C1.43421 15.0006 1.36911 14.9877 1.30838 14.9625C1.24764 14.9374 1.19245 14.9005 1.14596 14.854C1.09947 14.8075 1.06259 14.7523 1.03744 14.6916C1.01228 14.6308 0.999327 14.5657 0.999327 14.5C0.999327 14.4342 1.01228 14.3691 1.03744 14.3084C1.06259 14.2477 1.09947 14.1925 1.14596 14.146L14.146 1.14599C14.2398 1.0521 14.3672 0.999359 14.5 0.999359C14.6327 0.999359 14.7601 1.0521 14.854 1.14599C14.9478 1.23988 15.0006 1.36722 15.0006 1.49999C15.0006 1.63277 14.9478 1.7601 14.854 1.85399L1.85396 14.854ZM7.77996 9.98799C8.07796 10.021 8.37956 9.98658 8.66246 9.88728C8.94536 9.78799 9.20232 9.62636 9.41433 9.41436C9.62633 9.20235 9.78796 8.9454 9.88725 8.6625C9.98654 8.37959 10.021 8.07799 9.98796 7.77999L7.77996 9.98799ZM8.21996 6.01199C7.92196 5.97899 7.62036 6.01341 7.33745 6.1127C7.05455 6.21199 6.7976 6.37362 6.58559 6.58562C6.37359 6.79763 6.21196 7.05459 6.11267 7.33749C6.01337 7.62039 5.97896 7.92199 6.01196 8.21999L8.21996 6.01199Z" fill="#7C7C7C"/>
</g>
<defs>
<clipPath id="clip0_67_520">
<rect width="16" height="16" fill="white"/>
</clipPath>
</defs>
</svg>
