<svg width="22" height="23" viewBox="0 0 22 23" fill="none" xmlns="http://www.w3.org/2000/svg">
<path opacity="0.987" fill-rule="evenodd" clip-rule="evenodd" d="M9.66082 0.0984848C10.8362 -0.0328283 11.5316 -0.0328283 12.7945 0.0984848C15.03 0.429353 17.1022 1.46266 18.7117 3.04898C17.6241 4.07701 16.5508 5.12004 15.4921 6.17779C13.4646 4.45938 11.2015 4.06274 8.70273 4.98787C6.86975 5.83087 5.59336 7.19696 4.87357 9.08614C3.69733 8.21044 2.53641 7.31435 1.39134 6.39827C1.31176 6.35638 1.22087 6.34105 1.13196 6.3545C2.95089 2.84741 5.7933 0.761535 9.6592 0.0968636" fill="#F44336"/>
<path opacity="0.997" fill-rule="evenodd" clip-rule="evenodd" d="M1.12873 6.3545C1.22059 6.34045 1.3076 6.35504 1.38973 6.39828C2.5348 7.31435 3.69572 8.21044 4.87196 9.08614C4.68687 9.82224 4.57019 10.5739 4.52342 11.3314C4.5634 12.0642 4.67959 12.7834 4.87196 13.4892L1.21627 16.3991C-0.375698 13.0725 -0.404879 9.72433 1.12873 6.3545Z" fill="#FFC107"/>
<path opacity="0.999" fill-rule="evenodd" clip-rule="evenodd" d="M18.5383 19.9235C17.4 18.9197 16.2084 17.978 14.9685 17.1027C16.2114 16.2251 16.9658 15.0212 17.2316 13.4908H11.141V9.26121C14.6535 9.23203 18.1644 9.26175 21.6736 9.35037C22.3394 12.9655 21.5704 16.2251 19.3667 19.1291C19.1047 19.4077 18.8271 19.6728 18.5383 19.9235Z" fill="#448AFF"/>
<path opacity="0.993" fill-rule="evenodd" clip-rule="evenodd" d="M4.872 13.4908C6.20134 16.7947 8.63847 18.3369 12.1834 18.1175C13.1785 18.0023 14.1326 17.6547 14.9685 17.1027C16.2092 17.9803 17.3992 18.9206 18.5383 19.9235C16.7334 21.5454 14.4321 22.5077 12.0099 22.6535C11.4596 22.6975 10.9067 22.6975 10.3563 22.6535C6.22998 22.1672 3.1833 20.0824 1.21631 16.3991L4.872 13.4908Z" fill="#43A047"/>
</svg>
