<svg width="20" height="20" viewBox="0 0 20 20" fill="none" xmlns="http://www.w3.org/2000/svg">
<path d="M0 2C0 1.46957 0.210714 0.960859 0.585786 0.585786C0.960859 0.210714 1.46957 0 2 0H8.172C8.70239 0.000113275 9.21101 0.210901 9.586 0.586L14.696 5.695C14.5895 5.77713 14.4886 5.86633 14.394 5.962L12.356 8H10C9.46957 8 8.96086 7.78929 8.58579 7.41421C8.21071 7.03914 8 6.53043 8 6V1.5H2C1.86739 1.5 1.74021 1.55268 1.64645 1.64645C1.55268 1.74021 1.5 1.86739 1.5 2V18C1.5 18.1326 1.55268 18.2598 1.64645 18.3536C1.74021 18.4473 1.86739 18.5 2 18.5H14C14.1326 18.5 14.2598 18.4473 14.3536 18.3536C14.4473 18.2598 14.5 18.1326 14.5 18V15.15L16 13.65V18C16 18.5304 15.7893 19.0391 15.4142 19.4142C15.0391 19.7893 14.5304 20 14 20H2C1.46957 20 0.960859 19.7893 0.585786 19.4142C0.210714 19.0391 0 18.5304 0 18V2ZM10 6.5H13.38L9.5 2.62V6C9.5 6.13261 9.55268 6.25979 9.64645 6.35355C9.74021 6.44732 9.86739 6.5 10 6.5ZM9.197 12.572L15.1 6.669C15.3111 6.45133 15.5633 6.27781 15.8421 6.15856C16.1208 6.03931 16.4205 5.97671 16.7237 5.97439C17.0269 5.97208 17.3275 6.0301 17.6081 6.14508C17.8886 6.26006 18.1435 6.4297 18.3579 6.64413C18.5722 6.85856 18.7418 7.11348 18.8567 7.39407C18.9716 7.67466 19.0295 7.9753 19.0271 8.27848C19.0247 8.58167 18.962 8.88135 18.8427 9.16008C18.7233 9.4388 18.5497 9.69101 18.332 9.902L12.43 15.804C12.0854 16.1479 11.6541 16.3922 11.182 16.511L9.352 16.968C9.23716 16.9976 9.11829 17.0084 9 17H3.75C3.55109 17 3.36032 16.921 3.21967 16.7803C3.07902 16.6397 3 16.4489 3 16.25C3 16.0511 3.07902 15.8603 3.21967 15.7197C3.36032 15.579 3.55109 15.5 3.75 15.5H8.071L8.491 13.82C8.609 13.347 8.853 12.916 9.197 12.572Z" fill="#7C7C7C"/>
</svg>
