<svg width="25" height="23" viewBox="0 0 25 23" fill="none" xmlns="http://www.w3.org/2000/svg">
<path d="M8.76562 0C7.66219 0 6.70106 0.627 6.09056 1.48294C5.48006 2.33888 5.15625 3.44438 5.15625 4.64062C5.15625 5.83687 5.48006 6.94341 6.09056 7.79934C6.70106 8.65528 7.66219 9.28125 8.76562 9.28125C9.86906 9.28125 10.8302 8.65425 11.4407 7.79831C12.0512 6.94238 12.375 5.83687 12.375 4.64062C12.375 3.44438 12.0512 2.33784 11.4407 1.48191C10.8302 0.625969 9.86906 0 8.76562 0ZM12.375 4.64062C12.375 5.83687 12.6988 6.94341 13.3093 7.79934C13.9198 8.65528 14.882 9.28125 15.9844 9.28125C17.0878 9.28125 18.0489 8.65425 18.6594 7.79831C19.2699 6.94238 19.5938 5.83687 19.5938 4.64062C19.5938 3.44438 19.2699 2.33784 18.6594 1.48191C18.0489 0.625969 17.0878 0 15.9844 0C14.8809 0 13.9198 0.627 13.3093 1.48294C12.6988 2.33888 12.375 3.44438 12.375 4.64062ZM8.76562 2.0625C9.08737 2.0625 9.44213 2.22337 9.76594 2.67506C10.0856 3.12572 10.3125 3.84347 10.3125 4.64062C10.3125 5.43778 10.0856 6.15656 9.76594 6.60619C9.44213 7.05788 9.08737 7.21875 8.76562 7.21875C8.44388 7.21875 8.08912 7.05788 7.76531 6.60619C7.44562 6.15553 7.21875 5.43778 7.21875 4.64062C7.21875 3.84347 7.44562 3.12469 7.76531 2.67506C8.08912 2.22337 8.44388 2.0625 8.76562 2.0625ZM15.9844 2.0625C16.3061 2.0625 16.6609 2.22337 16.9847 2.67506C17.3044 3.12572 17.5312 3.84347 17.5312 4.64062C17.5312 5.43778 17.3044 6.15656 16.9847 6.60619C16.6609 7.05788 16.3061 7.21875 15.9844 7.21875C15.6626 7.21875 15.3079 7.05788 14.9841 6.60619C14.6644 6.15553 14.4375 5.43778 14.4375 4.64062C14.4375 3.84347 14.6644 3.12469 14.9841 2.67506C15.3079 2.22337 15.6626 2.0625 15.9844 2.0625ZM3.60938 7.21875C2.50594 7.21875 1.54481 7.84575 0.934313 8.70169C0.323813 9.55762 0 10.6631 0 11.8594C0 13.0556 0.323813 14.1622 0.934313 15.0181C1.54481 15.874 2.50594 16.5 3.60938 16.5C4.71281 16.5 5.67394 15.873 6.28444 15.0171C6.89494 14.1611 7.21875 13.0556 7.21875 11.8594C7.21875 10.6631 6.89494 9.55659 6.28444 8.70066C5.67394 7.84472 4.71281 7.21875 3.60938 7.21875ZM21.1406 7.21875C20.0372 7.21875 19.0761 7.84575 18.4656 8.70169C17.8551 9.55762 17.5312 10.6631 17.5312 11.8594C17.5312 13.0556 17.8551 14.1622 18.4656 15.0181C19.0761 15.874 20.0372 16.5 21.1406 16.5C22.2441 16.5 23.2052 15.873 23.8157 15.0171C24.4262 14.1611 24.75 13.0556 24.75 11.8594C24.75 10.6631 24.4262 9.55659 23.8157 8.70066C23.2052 7.84472 22.2441 7.21875 21.1406 7.21875ZM3.60938 9.28125C3.93112 9.28125 4.28588 9.44213 4.60969 9.89381C4.92938 10.3445 5.15625 11.0622 5.15625 11.8594C5.15625 12.6565 4.92938 13.3753 4.60969 13.8249C4.28588 14.2766 3.93112 14.4375 3.60938 14.4375C3.28763 14.4375 2.93288 14.2766 2.60906 13.8249C2.28938 13.3753 2.0625 12.6565 2.0625 11.8594C2.0625 11.0622 2.28938 10.3434 2.60906 9.89381C2.93288 9.44213 3.28763 9.28125 3.60938 9.28125ZM21.1406 9.28125C21.4624 9.28125 21.8171 9.44213 22.1409 9.89381C22.4606 10.3445 22.6875 11.0622 22.6875 11.8594C22.6875 12.6565 22.4606 13.3753 22.1409 13.8249C21.8171 14.2766 21.4624 14.4375 21.1406 14.4375C20.8189 14.4375 20.4641 14.2766 20.1403 13.8249C19.8206 13.3743 19.5938 12.6565 19.5938 11.8594C19.5938 11.0622 19.8206 10.3434 20.1403 9.89381C20.4641 9.44213 20.8189 9.28125 21.1406 9.28125ZM12.375 11.3438C11.0003 11.3438 10.0413 12.2358 9.57 13.0195C9.10181 13.8033 8.81306 14.455 8.53875 14.7273C8.38097 14.8892 7.38581 15.2635 6.34838 15.7926C5.82966 16.0576 5.30681 16.4113 4.86647 16.9527C4.42303 17.4941 4.12397 18.2418 4.12397 19.0802C4.12397 21.0602 5.75334 22.6896 7.73334 22.6896C8.62641 22.6896 9.55866 22.4008 10.4713 22.143C11.3881 21.879 12.375 21.6562 12.375 21.6562C12.375 21.6562 13.3619 21.879 14.2766 22.1409C15.1903 22.3987 16.1226 22.6875 17.0156 22.6875C18.9956 22.6875 20.625 21.0581 20.625 19.0781C20.625 18.2593 20.3228 17.5106 19.8825 16.9847C19.4442 16.4557 18.9162 16.1287 18.4016 15.8555C17.3704 15.3089 16.3567 14.8758 16.2102 14.7273C15.9627 14.4829 15.6843 13.8095 15.2099 13.0216C14.7366 12.2306 13.7569 11.3438 12.375 11.3438ZM12.375 13.4062C13.0556 13.4062 13.1309 13.5712 13.4372 14.0828C13.7466 14.5932 13.9776 15.4605 14.7263 16.2102C15.577 17.0558 16.6516 17.2415 17.4343 17.6581C17.8262 17.8664 18.1252 18.0881 18.3047 18.3026C18.4831 18.5161 18.5625 18.711 18.5625 19.0761C18.5625 19.9423 17.8819 20.6229 17.0156 20.6229C16.7166 20.6229 15.7534 20.3961 14.8562 20.1383C13.959 19.8835 13.2165 19.5917 12.375 19.5917C11.5335 19.5917 10.791 19.8835 9.89381 20.1383C8.99662 20.3961 8.03344 20.6229 7.73438 20.6229C6.86812 20.6229 6.1875 19.9423 6.1875 19.0761C6.1875 18.6605 6.27413 18.447 6.44531 18.2366C6.6165 18.0263 6.93206 17.82 7.31569 17.6251C8.08294 17.2332 9.15131 17.0785 10.0227 16.2071C10.7786 15.4471 11.0055 14.552 11.3118 14.0467C11.6129 13.5413 11.6851 13.4021 12.374 13.4021L12.375 13.4062Z" fill="#149500"/>
</svg>
