<svg width="20" height="20" viewBox="0 0 20 20" fill="none" xmlns="http://www.w3.org/2000/svg">
<path fill-rule="evenodd" clip-rule="evenodd" d="M17.6776 9.66224L9.64457 17.6602C8.57396 18.7055 7.13403 19.2859 5.63781 19.2753C4.14158 19.2648 2.71001 18.664 1.65431 17.6037C0.598599 16.5434 0.00409114 15.1092 2.1036e-05 13.6129C-0.00404906 12.1167 0.582648 10.6793 1.63257 9.61324L9.66557 1.61524C10.7362 0.569976 12.1761 -0.0104496 13.6723 0.000142463C15.1686 0.0107346 16.6001 0.611488 17.6558 1.67181C18.7115 2.73213 19.3061 4.1663 19.3101 5.66256C19.3142 7.15881 18.7275 8.5962 17.6776 9.66224ZM16.2776 3.04424C15.5892 2.35383 14.655 1.96479 13.6801 1.96254C12.7051 1.96029 11.7691 2.34502 11.0776 3.03224L3.04357 11.0302C2.35228 11.7185 1.96271 12.6531 1.96056 13.6286C1.9584 14.6041 2.34383 15.5405 3.03207 16.2317C3.72031 16.923 4.65497 17.3126 5.63044 17.3148C6.60591 17.3169 7.54228 16.9315 8.23357 16.2432L16.2666 8.24524C16.9573 7.55684 17.3465 6.62241 17.3488 5.64723C17.351 4.67204 16.9661 3.73583 16.2786 3.04424H16.2776Z" fill="#0066CC"/>
<path fill-rule="evenodd" clip-rule="evenodd" d="M5.92267 5.88623C6.1102 5.69876 6.36451 5.59344 6.62967 5.59344C6.89483 5.59344 7.14914 5.69876 7.33667 5.88623L13.3867 11.9362C13.5688 12.1248 13.6696 12.3774 13.6673 12.6396C13.6651 12.9018 13.5599 13.1526 13.3745 13.338C13.1891 13.5235 12.9383 13.6286 12.6761 13.6309C12.4139 13.6332 12.1613 13.5324 11.9727 13.3502L5.92267 7.30023C5.7352 7.1127 5.62988 6.8584 5.62988 6.59323C5.62988 6.32807 5.7352 6.07376 5.92267 5.88623Z" fill="#0066CC"/>
</svg>
