<svg width="21" height="19" viewBox="0 0 21 19" fill="none" xmlns="http://www.w3.org/2000/svg">
<path d="M10.375 7.625C7.47192 7.625 5.01892 10.16 4.22692 13.416C3.87858 14.8479 4.40383 16.3677 5.69313 17.0818C6.71521 17.6478 8.2355 18.1667 10.375 18.1667C12.5145 18.1667 14.0353 17.6478 15.0573 17.0818C16.3466 16.3677 16.8714 14.8479 16.5231 13.416C15.7311 10.1596 13.2781 7.625 10.375 7.625ZM0.75 6.91183C0.75 8.17775 1.57042 9.45833 2.58333 9.45833C3.59625 9.45833 4.41667 8.17775 4.41667 6.91183C4.41667 5.64592 3.59625 4.875 2.58333 4.875C1.57042 4.875 0.75 5.64637 0.75 6.91183ZM20 6.91183C20 8.17775 19.1796 9.45833 18.1667 9.45833C17.1538 9.45833 16.3333 8.17775 16.3333 6.91183C16.3333 5.64592 17.1538 4.875 18.1667 4.875C19.1796 4.875 20 5.64637 20 6.91183ZM5.5625 2.78683C5.5625 4.05275 6.38292 5.33333 7.39583 5.33333C8.40875 5.33333 9.22917 4.05275 9.22917 2.78683C9.22917 1.52092 8.40875 0.75 7.39583 0.75C6.38292 0.75 5.5625 1.52138 5.5625 2.78683ZM15.1875 2.78683C15.1875 4.05275 14.3671 5.33333 13.3542 5.33333C12.3413 5.33333 11.5208 4.05275 11.5208 2.78683C11.5208 1.52092 12.3413 0.75 13.3542 0.75C14.3671 0.75 15.1875 1.52138 15.1875 2.78683Z" stroke="#7C7C7C" stroke-width="1.5" stroke-linecap="round" stroke-linejoin="round"/>
</svg>
