<svg width="22" height="22" viewBox="0 0 22 22" fill="none" xmlns="http://www.w3.org/2000/svg">
<path d="M5.82011 20.7064L1.08106e-05 22L1.29361 16.1799C0.441867 14.5863 -0.00252722 12.8069 1.08106e-05 11C1.08106e-05 4.9247 4.92471 0 11 0C17.0753 0 22 4.9247 22 11C22 17.0753 17.0753 22 11 22C9.19312 22.0025 7.41365 21.5581 5.82011 20.7064ZM6.13911 18.3821L6.85741 18.7671C8.1319 19.4479 9.55507 19.8028 11 19.8C12.7405 19.8 14.4419 19.2839 15.889 18.3169C17.3362 17.35 18.4641 15.9756 19.1301 14.3676C19.7962 12.7596 19.9705 10.9902 19.6309 9.2832C19.2914 7.57617 18.4532 6.00816 17.2225 4.77746C15.9918 3.54676 14.4238 2.70864 12.7168 2.36909C11.0098 2.02954 9.24038 2.20381 7.63239 2.86986C6.0244 3.53591 4.65003 4.66383 3.68308 6.11098C2.71612 7.55813 2.20001 9.25952 2.20001 11C2.20001 12.4685 2.55751 13.8787 3.23401 15.1426L3.61791 15.8609L2.89741 19.1026L6.13911 18.3821Z" fill="#7C7C7C"/>
</svg>
