<svg width="19" height="19" viewBox="0 0 19 19" fill="none" xmlns="http://www.w3.org/2000/svg">
<path fill-rule="evenodd" clip-rule="evenodd" d="M4.39219 14.2927C4.07796 14.4852 3.84188 14.7826 3.72565 15.1322C3.60942 15.4819 3.62052 15.8615 3.75699 16.2038C3.89346 16.546 4.14653 16.8291 4.47147 17.0029C4.79641 17.1767 5.17232 17.23 5.53279 17.1535C5.89326 17.077 6.21509 16.8756 6.44143 16.5848C6.66776 16.294 6.78404 15.9325 6.7697 15.5643C6.75537 15.1961 6.61136 14.8448 6.36311 14.5725C6.11486 14.3001 5.77835 14.1243 5.41302 14.076C5.39351 14.0062 5.37562 13.9358 5.35938 13.8651C5.28844 13.5433 5.23283 13.2183 5.19271 12.8911C5.14965 12.5605 5.12531 12.2277 5.11979 11.8943C5.11895 11.8027 5.12155 11.7112 5.1276 11.6198C5.32795 11.5622 5.52847 11.5106 5.72917 11.4651C5.95885 11.413 6.09531 11.6839 6.20521 11.9036L6.25 11.9917H12.3693C12.4885 11.7656 12.7589 11.4052 13.0208 11.4651C13.3007 11.529 13.58 11.6042 13.8589 11.6906L13.8573 11.6911C13.8562 11.6901 13.8562 11.6905 13.8573 11.6922C13.8594 11.6995 13.8708 11.7339 13.8823 11.8068C13.8955 11.8915 13.9042 12 13.9083 12.1323C13.9156 12.3948 13.9005 12.7141 13.8698 13.0359C13.8385 13.3573 13.7922 13.6682 13.7401 13.9135C13.7286 13.9681 13.7172 14.0177 13.7057 14.0625H13.0208C12.9241 14.0626 12.8294 14.0895 12.7471 14.1404C12.6649 14.1913 12.5984 14.264 12.5552 14.3505L12.0344 15.3922C11.9982 15.4645 11.9793 15.5442 11.9792 15.625V16.6667C11.9792 16.8048 12.034 16.9373 12.1317 17.035C12.2294 17.1326 12.3619 17.1875 12.5 17.1875H13.5417V16.1458H13.0208V15.7479L13.3427 15.1042H14.7823L15.1042 15.7479V16.1458H14.5833V17.1875H15.625C15.7631 17.1875 15.8956 17.1326 15.9933 17.035C16.091 16.9373 16.1458 16.8048 16.1458 16.6667V15.625C16.1457 15.5442 16.1268 15.4645 16.0906 15.3922L15.5698 14.3505C15.5266 14.264 15.4601 14.1913 15.3779 14.1404C15.2956 14.0895 15.2009 14.0626 15.1042 14.0625H14.7729C14.8286 13.7849 14.875 13.4609 14.9062 13.1359C14.9406 12.7849 14.9583 12.4208 14.9495 12.1031L14.949 12.0885C17.026 12.9661 18.75 14.4094 18.75 15.9219V18.75H0V15.9219C0 14.3427 1.88021 12.8385 4.07865 11.9755C4.08437 12.2995 4.1151 12.6656 4.15937 13.0203C4.20729 13.4031 4.2724 13.7839 4.34427 14.0974C4.3599 14.1644 4.37587 14.2295 4.39219 14.2927ZM5.20833 16.1536C5.48854 16.1536 5.72917 15.9245 5.72917 15.625C5.72917 15.326 5.48854 15.0964 5.20833 15.0964C4.92812 15.0964 4.6875 15.3255 4.6875 15.625C4.6875 15.924 4.92812 16.1536 5.20833 16.1536ZM9.375 9.375C10.4801 9.375 11.5399 8.93601 12.3213 8.15461C13.1027 7.37321 13.5417 6.3134 13.5417 5.20833C13.5417 4.10326 13.1027 3.04346 12.3213 2.26205C11.5399 1.48065 10.4801 1.04167 9.375 1.04167C8.26993 1.04167 7.21012 1.48065 6.42872 2.26205C5.64732 3.04346 5.20833 4.10326 5.20833 5.20833C5.20833 6.3134 5.64732 7.37321 6.42872 8.15461C7.21012 8.93601 8.26993 9.375 9.375 9.375ZM9.375 10.4167C12.2516 10.4167 14.5833 8.0849 14.5833 5.20833C14.5833 2.33177 12.2516 0 9.375 0C6.49844 0 4.16667 2.33177 4.16667 5.20833C4.16667 8.0849 6.49844 10.4167 9.375 10.4167Z" fill="#0066CC"/>
</svg>
