<svg width="22" height="23" viewBox="0 0 22 23" fill="none" xmlns="http://www.w3.org/2000/svg">
<path d="M11.0018 4.43486e-06C10.6296 -0.000834256 10.2669 0.117303 9.96652 0.337176C9.66618 0.55705 9.44396 0.867152 9.3323 1.22223C9.22064 1.57731 9.22538 1.95878 9.34582 2.31098C9.46627 2.66317 9.69611 2.96766 10.0018 3.18V4.58C9.10182 4.71 8.26182 5 7.50182 5.44L6.39182 3.85C6.58182 3.33 6.53182 2.73 6.19182 2.25C5.84182 1.76 5.30182 1.5 4.75182 1.5C4.40182 1.5 4.05182 1.6 3.75182 1.82C2.96182 2.37 2.76182 3.46 3.32182 4.25C3.66182 4.74 4.20182 5 4.75182 5L5.93182 6.68C5.50182 7.11 5.16182 7.59 4.87182 8.12C4.67182 8.04 4.46182 8 4.25182 8C3.80182 8 3.35182 8.17 3.00182 8.5C2.33182 9.2 2.33182 10.3 3.00182 11C3.29182 11.27 3.64182 11.42 4.00182 11.5C4.00182 12.04 4.07182 12.56 4.18182 13.06L2.87182 13.41C2.56182 13.15 2.16182 13 1.75182 13C1.60182 13 1.44182 13 1.29182 13.06C1.06979 13.1202 0.861803 13.2237 0.679777 13.3644C0.497751 13.5051 0.345253 13.6803 0.23101 13.88C0.116766 14.0797 0.0430193 14.2999 0.0139885 14.5281C-0.0150422 14.7564 0.00121283 14.9881 0.0618238 15.21C0.271824 16 1.00182 16.5 1.75182 16.5C1.90182 16.5 2.05182 16.5 2.21182 16.44C2.78182 16.28 3.21182 15.86 3.39182 15.34L4.90182 14.93C5.35182 15.72 5.95182 16.42 6.65182 17L5.55182 19C5.00182 19.08 4.50182 19.39 4.21182 19.92C4.10283 20.1222 4.03473 20.344 4.01142 20.5725C3.98811 20.8011 4.01005 21.032 4.07598 21.2521C4.14191 21.4721 4.25054 21.6771 4.39567 21.8552C4.5408 22.0332 4.71959 22.181 4.92182 22.29C5.12406 22.399 5.34578 22.4671 5.57434 22.4904C5.80289 22.5137 6.03379 22.4918 6.25387 22.4258C6.47394 22.3599 6.67888 22.2513 6.85697 22.1062C7.03506 21.961 7.18283 21.7822 7.29182 21.58C7.57182 21.06 7.56182 20.46 7.31182 19.97L8.38182 18C9.19182 18.32 10.0718 18.5 11.0018 18.5H11.1818C11.0518 18.76 11.0018 19.06 11.0018 19.38C11.0818 20.3 11.8418 21 12.7518 21H12.8818C13.8518 20.92 14.5718 20.08 14.5018 19.12C14.4618 18.62 14.2118 18.18 13.8518 17.89C14.3218 17.68 14.7718 17.41 15.1918 17.1L17.5318 19.44C17.4318 20 17.5918 20.57 18.0018 21C18.3518 21.33 18.8018 21.5 19.2518 21.5C19.7018 21.5 20.1518 21.33 20.5018 21C21.1718 20.3 21.1718 19.2 20.5018 18.5C20.1518 18.17 19.7018 18 19.2518 18C19.1518 18 19.0518 18 18.9418 18.03L16.6018 15.69C17.0918 15.04 17.4718 14.3 17.7118 13.5H18.8218C19.0342 13.8057 19.3387 14.0356 19.6909 14.156C20.043 14.2764 20.4245 14.2812 20.7796 14.1695C21.1347 14.0579 21.4448 13.8357 21.6647 13.5353C21.8845 13.235 22.0027 12.8722 22.0018 12.5C22.0027 12.1278 21.8845 11.765 21.6647 11.4647C21.4448 11.1644 21.1347 10.9421 20.7796 10.8305C20.4245 10.7188 20.043 10.7236 19.6909 10.844C19.3387 10.9644 19.0342 11.1943 18.8218 11.5H18.0018C18.0018 9.93 17.5018 8.5 16.6018 7.31L17.9418 5.97C18.0518 6 18.1518 6 18.2518 6C18.7018 6 19.1518 5.83 19.5018 5.5C20.1718 4.81 20.1718 3.7 19.5018 3C19.1518 2.67 18.7018 2.5 18.2518 2.5C17.8018 2.5 17.3518 2.67 17.0018 3C16.5918 3.43 16.4318 4 16.5318 4.56L15.1918 5.9C14.2718 5.21 13.1918 4.75 12.0018 4.58V3.18C12.3075 2.96766 12.5374 2.66317 12.6578 2.31098C12.7783 1.95878 12.783 1.57731 12.6713 1.22223C12.5597 0.867152 12.3375 0.55705 12.0371 0.337176C11.7368 0.117303 11.374 -0.000834256 11.0018 4.43486e-06ZM11.0018 16.5C8.24182 16.5 6.00182 14.26 6.00182 11.5C6.00182 8.74 8.24182 6.5 11.0018 6.5C13.7618 6.5 16.0018 8.74 16.0018 11.5C16.0018 14.26 13.7618 16.5 11.0018 16.5ZM9.50182 8.5C8.67182 8.5 8.00182 9.17 8.00182 10C8.00182 10.83 8.67182 11.5 9.50182 11.5C10.3318 11.5 11.0018 10.83 11.0018 10C11.0018 9.17 10.3318 8.5 9.50182 8.5ZM13.0018 12.5C12.4518 12.5 12.0018 12.95 12.0018 13.5C12.0018 14.05 12.4518 14.5 13.0018 14.5C13.5518 14.5 14.0018 14.05 14.0018 13.5C14.0018 12.95 13.5518 12.5 13.0018 12.5Z" fill="#0066CC"/>
</svg>
