<svg width="20" height="23" viewBox="0 0 20 23" fill="none" xmlns="http://www.w3.org/2000/svg">
<path d="M7.58333 20.5833H11.9167C11.9167 21.775 10.9417 22.75 9.75 22.75C8.55833 22.75 7.58333 21.775 7.58333 20.5833ZM19.5 18.4167V19.5H0V18.4167L2.16667 16.25V9.75C2.16667 6.39167 4.33333 3.46667 7.58333 2.49167V2.16667C7.58333 0.975 8.55833 0 9.75 0C10.9417 0 11.9167 0.975 11.9167 2.16667V2.49167C15.1667 3.46667 17.3333 6.39167 17.3333 9.75V16.25L19.5 18.4167ZM15.1667 9.75C15.1667 6.71667 12.7833 4.33333 9.75 4.33333C6.71667 4.33333 4.33333 6.71667 4.33333 9.75V17.3333H15.1667V9.75Z" fill="#0066CC"/>
</svg>
