<svg width="19" height="20" viewBox="0 0 19 20" fill="none" xmlns="http://www.w3.org/2000/svg">
<path d="M12.04 7.56C13.86 7.56 14.98 4.9 14.98 3.22C14.98 1.82 14.28 0.14 12.88 0.14C11.06 0.14 9.94 2.8 9.94 4.48C9.94 5.88 10.64 7.56 12.04 7.56ZM6.72 7.56C8.12 7.56 8.82 5.88 8.82 4.48C8.82 2.66 7.7 0 5.88 0C4.48 0 3.78 1.68 3.78 3.08C3.64 4.9 4.76 7.56 6.72 7.56ZM17.08 6.16C15.26 6.16 14 8.68 14 10.5C14 11.76 14.56 13.02 15.82 13.02C17.64 13.02 18.9 10.5 18.9 8.68C18.9 7.42 18.2 6.16 17.08 6.16ZM4.9 10.5C4.9 8.68 3.5 6.16 1.82 6.16C0.56 6.16 0 7.42 0 8.68C0 10.5 1.4 13.02 3.08 13.02C4.34 13.02 4.9 11.76 4.9 10.5ZM9.38 10.22C6.58 10.22 2.8 14.7 2.8 17.78C2.8 19.18 3.78 19.6 4.9 19.6C6.58 19.6 7.84 18.48 9.38 18.48C10.78 18.48 12.04 19.6 13.58 19.6C14.7 19.6 15.96 19.32 15.96 17.78C15.96 14.7 12.18 10.22 9.38 10.22Z" fill="#7C7C7C"/>
</svg>
