<svg width="19" height="19" viewBox="0 0 19 19" fill="none" xmlns="http://www.w3.org/2000/svg">
<path fill-rule="evenodd" clip-rule="evenodd" d="M5.50143 0.68C5.9372 0.245302 6.52735 0.000818597 7.14286 0H11.4286C12.0443 0 12.6347 0.244578 13.0701 0.679931C13.5054 1.11528 13.75 1.70575 13.75 2.32143V3.57143H16.25C17.5314 3.57143 18.5714 4.61143 18.5714 5.89286V16.25C18.5714 17.5329 17.5314 18.5714 16.25 18.5714H2.32143C1.70575 18.5714 1.11528 18.3269 0.679931 17.8915C0.244578 17.4561 0 16.8657 0 16.25V5.89286C0 4.61143 1.04 3.57143 2.32143 3.57143H4.82143V2.32143C4.82143 1.70571 5.06571 1.11571 5.50143 0.68ZM11.9643 2.32143V3.57143H6.60714V2.32143C6.60714 2.17935 6.66358 2.04309 6.76405 1.94262C6.86452 1.84216 7.00078 1.78571 7.14286 1.78571H11.4286C11.5707 1.78571 11.7069 1.84216 11.8074 1.94262C11.9078 2.04309 11.9643 2.17935 11.9643 2.32143ZM2.32143 5.35714H16.25C16.5457 5.35714 16.7857 5.59714 16.7857 5.89286V16.25C16.7857 16.3921 16.7293 16.5283 16.6288 16.6288C16.5283 16.7293 16.3921 16.7857 16.25 16.7857H2.32143C2.17935 16.7857 2.04309 16.7293 1.94262 16.6288C1.84216 16.5283 1.78571 16.3921 1.78571 16.25V5.89286C1.78571 5.59714 2.02571 5.35714 2.32143 5.35714ZM9.28571 7.14286C9.56987 7.14286 9.8424 7.25574 10.0433 7.45667C10.2443 7.6576 10.3571 7.93013 10.3571 8.21429V10H12.1429C12.427 10 12.6995 10.1129 12.9005 10.3138C13.1014 10.5147 13.2143 10.7873 13.2143 11.0714C13.2143 11.3556 13.1014 11.6281 12.9005 11.829C12.6995 12.03 12.427 12.1429 12.1429 12.1429H10.3571V13.9286C10.3571 14.2127 10.2443 14.4853 10.0433 14.6862C9.8424 14.8871 9.56987 15 9.28571 15C9.00155 15 8.72903 14.8871 8.5281 14.6862C8.32717 14.4853 8.21429 14.2127 8.21429 13.9286V12.1429H6.42857C6.14441 12.1429 5.87189 12.03 5.67096 11.829C5.47003 11.6281 5.35714 11.3556 5.35714 11.0714C5.35714 10.7873 5.47003 10.5147 5.67096 10.3138C5.87189 10.1129 6.14441 10 6.42857 10H8.21429V8.21429C8.21429 7.93013 8.32717 7.6576 8.5281 7.45667C8.72903 7.25574 9.00155 7.14286 9.28571 7.14286Z" fill="#CC0007"/>
</svg>
