<svg width="18" height="18" viewBox="0 0 18 18" fill="none" xmlns="http://www.w3.org/2000/svg">
<path d="M4.76191 16.9416L8.84505e-06 18L1.05841 13.2381C0.361528 11.9343 -0.00206773 10.4784 8.84505e-06 9C8.84505e-06 4.0293 4.02931 0 9 0C13.9707 0 18 4.0293 18 9C18 13.9707 13.9707 18 9 18C7.52164 18.0021 6.06572 17.6385 4.76191 16.9416ZM5.02291 15.0399L5.61061 15.3549C6.65337 15.9119 7.81778 16.2023 9 16.2C10.424 16.2 11.8161 15.7777 13.0001 14.9866C14.1841 14.1954 15.107 13.0709 15.6519 11.7553C16.1969 10.4397 16.3395 8.99201 16.0617 7.59535C15.7838 6.19868 15.0981 4.91577 14.0912 3.90883C13.0842 2.90189 11.8013 2.21616 10.4047 1.93835C9.00799 1.66053 7.56031 1.80312 6.24469 2.34807C4.92906 2.89302 3.80457 3.81586 3.01343 4.99989C2.22228 6.18393 1.80001 7.57597 1.80001 9C1.80001 10.2015 2.09251 11.3553 2.64601 12.3894L2.96011 12.9771L2.37061 15.6294L5.02291 15.0399Z" fill="#0066CC"/>
</svg>
