<svg width="24" height="22" viewBox="0 0 24 22" fill="none" xmlns="http://www.w3.org/2000/svg">
<path d="M6.27083 21.0292C5.57083 21.0097 4.90467 20.8301 4.27233 20.4902C3.64 20.1503 3.04228 19.6494 2.47917 18.9875C1.70139 18.0542 1.09394 16.9412 0.656833 15.6485C0.219722 14.3558 0.000777778 13.0286 0 11.6667C0 10.0528 0.306445 8.53611 0.919333 7.11667C1.53222 5.69722 2.36328 4.4625 3.4125 3.4125C4.46172 2.3625 5.69644 1.53145 7.11667 0.919335C8.53689 0.307224 10.0536 0.000779232 11.6667 1.4547e-06C13.2798 -0.000776323 14.7964 0.310335 16.2167 0.933335C17.6369 1.55633 18.8716 2.40217 19.9208 3.47083C20.9701 4.5395 21.8015 5.79367 22.4152 7.23333C23.0288 8.673 23.3349 10.2188 23.3333 11.8708C23.3333 13.3681 23.0903 14.7681 22.6042 16.0708C22.1181 17.3736 21.4278 18.4722 20.5333 19.3667C19.9889 19.9111 19.4153 20.3245 18.8125 20.6068C18.2097 20.8892 17.5972 21.0299 16.975 21.0292C16.625 21.0292 16.275 20.9856 15.925 20.8985C15.575 20.8114 15.225 20.6799 14.875 20.5042L13.2417 19.6875C13.0083 19.5708 12.7602 19.4833 12.4973 19.425C12.2344 19.3667 11.9576 19.3375 11.6667 19.3375C11.3758 19.3375 11.0989 19.3667 10.836 19.425C10.5731 19.4833 10.325 19.5708 10.0917 19.6875L8.45833 20.5042C8.08889 20.6986 7.7245 20.8398 7.36517 20.9277C7.00583 21.0156 6.64106 21.0494 6.27083 21.0292ZM6.32917 18.6958C6.50417 18.6958 6.68422 18.6764 6.86933 18.6375C7.05444 18.5986 7.23411 18.5306 7.40833 18.4333L9.04167 17.6167C9.45 17.4028 9.87311 17.2472 10.311 17.15C10.7489 17.0528 11.1911 17.0042 11.6375 17.0042C12.0839 17.0042 12.5312 17.0528 12.9792 17.15C13.4272 17.2472 13.8549 17.4028 14.2625 17.6167L15.925 18.4333C16.1 18.5306 16.275 18.5986 16.45 18.6375C16.625 18.6764 16.8 18.6958 16.975 18.6958C17.3444 18.6958 17.6944 18.5986 18.025 18.4042C18.3556 18.2097 18.6861 17.9181 19.0167 17.5292C19.6389 16.7903 20.125 15.9056 20.475 14.875C20.825 13.8444 21 12.7847 21 11.6958C21 9.09028 20.0958 6.87867 18.2875 5.061C16.4792 3.24333 14.2722 2.33411 11.6667 2.33333C9.06111 2.33256 6.85417 3.24645 5.04583 5.075C3.2375 6.90356 2.33333 9.12022 2.33333 11.725C2.33333 12.8333 2.513 13.9125 2.87233 14.9625C3.23167 16.0125 3.73256 16.8972 4.375 17.6167C4.70556 18.0056 5.02639 18.2828 5.3375 18.4485C5.64861 18.6142 5.97917 18.6966 6.32917 18.6958ZM13.3152 13.3152C13.7717 12.8571 14 12.3076 14 11.6667C14 11.5111 13.9852 11.3556 13.9557 11.2C13.9261 11.0444 13.8826 10.8889 13.825 10.7333L15.2833 8.77917C15.4778 9.03195 15.6481 9.29911 15.7943 9.58067C15.9406 9.86222 16.0619 10.1687 16.1583 10.5H18.55C18.2583 8.78889 17.4662 7.38889 16.1735 6.3C14.8808 5.21111 13.3786 4.66667 11.6667 4.66667C9.95478 4.66667 8.44783 5.21617 7.14583 6.31517C5.84383 7.41417 5.05633 8.80911 4.78333 10.5H7.175C7.44722 9.45 8.00139 8.60417 8.8375 7.9625C9.67361 7.32083 10.6167 7 11.6667 7C11.9972 7 12.3083 7.02917 12.6 7.0875C12.8917 7.14583 13.1736 7.23333 13.4458 7.35L11.9583 9.3625C11.9194 9.3625 11.8708 9.35745 11.8125 9.34733C11.7542 9.33722 11.7056 9.33256 11.6667 9.33333C11.025 9.33333 10.4759 9.562 10.0193 10.0193C9.56278 10.4767 9.33411 11.0258 9.33333 11.6667C9.33256 12.3076 9.56122 12.8571 10.0193 13.3152C10.4774 13.7733 11.0266 14.0016 11.6667 14C12.3068 13.9984 12.8563 13.7702 13.3152 13.3152Z" fill="#7C7C7C"/>
</svg>
