<svg width="16" height="22" viewBox="0 0 16 22" fill="none" xmlns="http://www.w3.org/2000/svg">
<path fill-rule="evenodd" clip-rule="evenodd" d="M7.75 1.50004C6.0924 1.50004 4.50269 2.15852 3.33059 3.33062C2.15848 4.50272 1.5 6.09243 1.5 7.75004C1.5 9.40764 2.15848 10.9974 3.33059 12.1695C4.50269 13.3416 6.0924 14 7.75 14C9.40761 14 10.9973 13.3416 12.1694 12.1695C13.3415 10.9974 14 9.40764 14 7.75004C14 6.09243 13.3415 4.50272 12.1694 3.33062C10.9973 2.15852 9.40761 1.50004 7.75 1.50004ZM4.79971e-06 7.75004C-7.05512e-07 6.46552 0.319274 5.20113 0.929113 4.07061C1.53895 2.94008 2.42023 1.97887 3.49369 1.27341C4.56715 0.567945 5.79913 0.140365 7.07882 0.0291201C8.35852 -0.0821244 9.6458 0.126455 10.8249 0.636101C12.004 1.14575 13.0379 1.94047 13.8337 2.94881C14.6294 3.95714 15.1621 5.14746 15.3838 6.41272C15.6054 7.67797 15.5091 8.97848 15.1035 10.1973C14.6978 11.4161 13.9956 12.5149 13.06 13.395C13.0851 13.4455 13.1058 13.498 13.122 13.552L13.772 15.921C14.075 17.028 14.32 17.919 14.431 18.611C14.54 19.289 14.562 19.987 14.183 20.555C13.967 20.878 13.673 21.143 13.327 21.319C12.697 21.639 12.01 21.482 11.395 21.249C10.767 21.013 9.979 20.602 9.011 20.097L8.964 20.073C8.24 19.696 8.05101 19.611 7.86901 19.592C7.78995 19.5826 7.71005 19.5826 7.631 19.592C7.449 19.611 7.261 19.696 6.53601 20.073L6.48901 20.097C5.52101 20.602 4.733 21.012 4.105 21.249C3.49 21.482 2.803 21.639 2.173 21.319C1.82771 21.1408 1.53322 20.8779 1.317 20.555C0.938005 19.987 0.960005 19.289 1.069 18.611C1.18 17.919 1.425 17.028 1.729 15.921L2.378 13.551C2.39426 13.4974 2.415 13.4452 2.44 13.395C1.66869 12.6711 1.05417 11.7966 0.63447 10.8256C0.21477 9.85464 -0.00117394 8.80785 4.79971e-06 7.75004ZM3.71 14.365L3.188 16.271C2.86801 17.435 2.64701 18.247 2.55 18.849C2.45001 19.474 2.525 19.662 2.565 19.721C2.63824 19.8309 2.73753 19.9209 2.854 19.983C2.877 19.994 3.02 20.056 3.576 19.846C4.109 19.645 4.81601 19.277 5.84301 18.743L5.946 18.689C6.514 18.392 6.971 18.154 7.472 18.1C7.65734 18.08 7.84267 18.08 8.028 18.1C8.528 18.153 8.986 18.392 9.554 18.689L9.657 18.743C10.683 19.277 11.391 19.645 11.924 19.846C12.48 20.056 12.624 19.994 12.646 19.983C12.7628 19.921 12.8625 19.831 12.936 19.721C12.976 19.661 13.05 19.474 12.95 18.849C12.853 18.247 12.631 17.435 12.313 16.271L11.79 14.365C10.5744 15.1101 9.17578 15.503 7.75 15.5C6.32423 15.503 4.92562 15.1101 3.71 14.365ZM7.75 5.78504C7.69267 5.88437 7.62634 6.00204 7.551 6.13804L7.453 6.31404L7.43001 6.35404C7.35201 6.49804 7.222 6.73604 7.005 6.90104C6.784 7.06904 6.51701 7.12704 6.36201 7.16104L6.318 7.17004L6.12801 7.21304C5.952 7.25304 5.809 7.28504 5.688 7.31604C5.767 7.41304 5.87 7.53504 6.004 7.69204L6.134 7.84404L6.164 7.87804C6.272 8.00304 6.44601 8.20304 6.52701 8.46304C6.60701 8.71904 6.57901 8.98304 6.56201 9.14904L6.557 9.19604L6.537 9.39904L6.495 9.85904C6.6 9.81304 6.71801 9.75904 6.859 9.69404L7.038 9.61204L7.078 9.59204C7.222 9.52503 7.471 9.40804 7.75 9.40804C8.02901 9.40804 8.278 9.52504 8.422 9.59304L8.462 9.61204L8.641 9.69404C8.78034 9.75937 8.90167 9.81437 9.005 9.85904L8.96301 9.39904L8.943 9.19604L8.938 9.14904C8.921 8.98204 8.893 8.71904 8.973 8.46304C9.053 8.20304 9.22801 8.00304 9.33601 7.87804L9.366 7.84404L9.49601 7.69204C9.63 7.53504 9.733 7.41304 9.81201 7.31604C9.691 7.28604 9.548 7.25304 9.372 7.21304L9.182 7.17004L9.138 7.16004C8.983 7.12704 8.716 7.06904 8.495 6.90003C8.278 6.73603 8.148 6.49804 8.07 6.35504L8.047 6.31404L7.94901 6.13804C7.87434 6.00204 7.808 5.88504 7.75 5.78504ZM6.764 4.55004C6.936 4.32504 7.248 4.00004 7.75 4.00004C8.252 4.00004 8.564 4.32504 8.736 4.55004C8.901 4.76404 9.066 5.06104 9.236 5.36604L9.259 5.40704L9.35701 5.58404L9.414 5.68404L9.513 5.70704L9.703 5.75004L9.75101 5.76004C10.078 5.83504 10.404 5.90804 10.654 6.00704C10.93 6.11604 11.304 6.32703 11.449 6.79204C11.591 7.24704 11.412 7.63304 11.256 7.88204C11.111 8.11203 10.891 8.36803 10.666 8.63103L10.636 8.66604L10.506 8.81904L10.424 8.91604C10.426 8.95204 10.431 8.99403 10.436 9.05103L10.456 9.25403L10.46 9.30004C10.494 9.65204 10.527 9.99203 10.515 10.264C10.503 10.55 10.435 10.982 10.047 11.275C9.64701 11.579 9.207 11.513 8.927 11.432C8.669 11.359 8.36401 11.218 8.057 11.077L8.014 11.057L7.834 10.974L7.75 10.935L7.665 10.975L7.486 11.057L7.44201 11.077C7.13601 11.218 6.831 11.359 6.573 11.432C6.293 11.512 5.853 11.579 5.453 11.275C5.066 10.982 4.997 10.55 4.985 10.265C4.973 9.99204 5.005 9.65204 5.04 9.30004L5.044 9.25403L5.064 9.05103L5.077 8.91604L4.99401 8.81904L4.86401 8.66604L4.834 8.63103C4.609 8.36803 4.38901 8.11103 4.24401 7.88103C4.08801 7.63303 3.909 7.24704 4.051 6.79104C4.195 6.32804 4.57 6.11604 4.846 6.00704C5.096 5.90804 5.422 5.83504 5.749 5.76104L5.796 5.75104L5.98701 5.70704L6.087 5.68404L6.143 5.58404L6.241 5.40704L6.264 5.36604C6.434 5.06104 6.599 4.76404 6.764 4.55004Z" fill="#7C7C7C"/>
</svg>
