<svg width="24" height="24" viewBox="0 0 24 24" fill="none" xmlns="http://www.w3.org/2000/svg">
<path d="M17.1229 8.93697L12.3069 4.12097L4.12086 12.307C3.99417 12.4333 3.89366 12.5834 3.82508 12.7486C3.75649 12.9139 3.72119 13.0911 3.72119 13.27C3.72119 13.4489 3.75649 13.626 3.82508 13.7913C3.89366 13.9565 3.99417 14.1066 4.12086 14.233L6.68886 16.807C6.8282 16.9467 6.99373 17.0575 7.17596 17.1331C7.3582 17.2087 7.55356 17.2477 7.75086 17.2477C7.94816 17.2477 8.14353 17.2087 8.32576 17.1331C8.508 17.0575 8.67353 16.9467 8.81286 16.807" stroke="#FF0009" stroke-width="1.5" stroke-linecap="round" stroke-linejoin="round"/>
<path d="M0.75 20.494L3.158 18.086M10.863 2.677L12.307 4.121M13.752 5.566L17.123 2.195M19.049 4.121L15.678 7.492M15.678 0.75L20.494 5.566M17.25 14.814V19.314M15 17.064H19.5M4.602 14.715L2.194 17.123L4.12 19.049L6.528 16.641L4.602 14.715ZM23.25 15.564C23.2532 17.3104 22.6603 19.0057 21.5693 20.3694C20.4783 21.7332 18.9545 22.6837 17.25 23.064C15.5455 22.6837 14.0217 21.7332 12.9307 20.3694C11.8397 19.0057 11.2468 17.3104 11.25 15.564V13.314C11.25 12.9162 11.408 12.5346 11.6893 12.2533C11.9706 11.972 12.3522 11.814 12.75 11.814H21.75C22.1478 11.814 22.5294 11.972 22.8107 12.2533C23.092 12.5346 23.25 12.9162 23.25 13.314V15.564Z" stroke="#FF0009" stroke-width="1.5" stroke-linecap="round" stroke-linejoin="round"/>
</svg>
