<svg width="20" height="23" viewBox="0 0 20 23" fill="none" xmlns="http://www.w3.org/2000/svg">
<path d="M2.49654 20H17.4965L15.7153 7.5H4.27779L2.49654 20ZM9.99654 5C10.3507 5 10.6478 4.88 10.8878 4.64C11.1278 4.4 11.2474 4.10333 11.2465 3.75C11.2457 3.39667 11.1257 3.1 10.8865 2.86C10.6474 2.62 10.3507 2.5 9.99654 2.5C9.64238 2.5 9.34571 2.62 9.10654 2.86C8.86738 3.1 8.74738 3.39667 8.74654 3.75C8.74571 4.10333 8.86571 4.40042 9.10654 4.64125C9.34738 4.88208 9.64404 5.00167 9.99654 5ZM13.5278 5H15.7153C16.3403 5 16.882 5.20833 17.3403 5.625C17.7986 6.04167 18.0799 6.55208 18.184 7.15625L19.9653 19.6562C20.0695 20.4062 19.877 21.0679 19.3878 21.6413C18.8986 22.2146 18.2682 22.5008 17.4965 22.5H2.49654C1.72571 22.5 1.09529 22.2137 0.605294 21.6413C0.115294 21.0688 -0.0772059 20.4071 0.0277941 19.6562L1.80904 7.15625C1.91321 6.55208 2.19446 6.04167 2.65279 5.625C3.11113 5.20833 3.65279 5 4.27779 5H6.46529C6.40279 4.79167 6.35071 4.58875 6.30904 4.39125C6.26738 4.19375 6.24654 3.98 6.24654 3.75C6.24654 2.70833 6.61113 1.82292 7.34029 1.09375C8.06946 0.364583 8.95488 0 9.99654 0C11.0382 0 11.9236 0.364583 12.6528 1.09375C13.382 1.82292 13.7465 2.70833 13.7465 3.75C13.7465 3.97917 13.7257 4.19292 13.684 4.39125C13.6424 4.58958 13.5903 4.7925 13.5278 5Z" fill="#0066CC"/>
</svg>
