<svg width="22" height="24" viewBox="0 0 22 24" fill="none" xmlns="http://www.w3.org/2000/svg">
<path d="M8 1V8L1 20V23H21V20L14 8V1M17 13C10 10 11 17 5 14M5 1H17M14 18C14.2652 18 14.5196 17.8946 14.7071 17.7071C14.8946 17.5196 15 17.2652 15 17C15 16.7348 14.8946 16.4804 14.7071 16.2929C14.5196 16.1054 14.2652 16 14 16C13.7348 16 13.4804 16.1054 13.2929 16.2929C13.1054 16.4804 13 16.7348 13 17C13 17.2652 13.1054 17.5196 13.2929 17.7071C13.4804 17.8946 13.7348 18 14 18ZM8 20C8.26522 20 8.51957 19.8946 8.70711 19.7071C8.89464 19.5196 9 19.2652 9 19C9 18.7348 8.89464 18.4804 8.70711 18.2929C8.51957 18.1054 8.26522 18 8 18C7.73478 18 7.48043 18.1054 7.29289 18.2929C7.10536 18.4804 7 18.7348 7 19C7 19.2652 7.10536 19.5196 7.29289 19.7071C7.48043 19.8946 7.73478 20 8 20Z" stroke="#D3EB00" stroke-width="2"/>
</svg>
