<svg width="21" height="21" viewBox="0 0 21 21" fill="none" xmlns="http://www.w3.org/2000/svg">
<path d="M11.9811 6.38143L13.9471 4.41443C13.7145 4.1819 13.5428 3.8956 13.4473 3.58089C13.3518 3.26618 13.3353 2.93277 13.3995 2.61018C13.4636 2.2876 13.6062 1.9858 13.8148 1.73153C14.0234 1.47725 14.2915 1.27834 14.5953 1.15241C14.8992 1.02648 15.2293 0.977425 15.5567 1.00958C15.884 1.04174 16.1983 1.15413 16.4718 1.33678C16.7453 1.51943 16.9696 1.76672 17.1247 2.05673C17.2798 2.34675 17.361 2.67054 17.3611 2.99943C17.6901 2.99919 18.014 3.08011 18.3042 3.23501C18.5945 3.38992 18.842 3.61402 19.0249 3.88746C19.2078 4.1609 19.3204 4.47524 19.3528 4.80262C19.3852 5.13 19.3363 5.46031 19.2105 5.76427C19.0847 6.06824 18.8858 6.33648 18.6316 6.54523C18.3773 6.75397 18.0755 6.89677 17.7528 6.96097C17.4302 7.02517 17.0967 7.00879 16.7819 6.91328C16.4671 6.81777 16.1807 6.64608 15.9481 6.41343L14.1281 8.23443M5.86109 13.9994L6.86109 14.9994M4.26509 16.5954C6.99809 19.3294 10.1651 20.5954 11.3351 19.4244C12.5071 18.2524 11.2411 15.0864 8.50709 12.3534C5.77409 9.61943 2.60709 8.35343 1.43709 9.52443C0.265095 10.6964 1.53109 13.8624 4.26509 16.5954Z" stroke="#149500" stroke-width="2" stroke-linecap="round" stroke-linejoin="round"/>
<path d="M11.336 19.4244C15.241 15.5184 16.191 10.1364 13.457 7.40342C10.724 4.66942 5.34201 5.61942 1.43701 9.52442" stroke="#149500" stroke-width="2" stroke-linecap="round" stroke-linejoin="round"/>
</svg>
