<svg width="18" height="22" viewBox="0 0 18 22" fill="none" xmlns="http://www.w3.org/2000/svg">
<path d="M0.75 6.75C0.75 3.922 0.75 2.507 1.629 1.629C2.507 0.75 3.922 0.75 6.75 0.75H10.75C13.578 0.75 14.993 0.75 15.871 1.629C16.75 2.507 16.75 3.922 16.75 6.75V14.75C16.75 17.578 16.75 18.993 15.871 19.871C14.993 20.75 13.578 20.75 10.75 20.75H6.75C3.922 20.75 2.507 20.75 1.629 19.871C0.75 18.993 0.75 17.578 0.75 14.75V6.75Z" stroke="#0066CC" stroke-width="1.5"/>
<path d="M16.648 14.75H4.648C3.718 14.75 3.253 14.75 2.871 14.852C2.36231 14.9884 1.89849 15.2563 1.52618 15.6288C1.15386 16.0013 0.886165 16.4652 0.75 16.974" stroke="#0066CC" stroke-width="1.5"/>
<path d="M4.75 5.75H12.75M4.75 9.25H9.75" stroke="#0066CC" stroke-width="1.5" stroke-linecap="round"/>
</svg>
