<svg width="21" height="21" viewBox="0 0 21 21" fill="none" xmlns="http://www.w3.org/2000/svg">
<path d="M9.263 19.9C9.021 19.8 8.8 19.6583 8.6 19.475L0.575 11.45C0.391667 11.25 0.25 11.029 0.15 10.787C0.05 10.545 0 10.291 0 10.025C0 9.75901 0.05 9.50067 0.15 9.25001C0.25 8.99934 0.391667 8.78267 0.575 8.60001L8.6 0.575007C8.8 0.375007 9.021 0.229007 9.263 0.137007C9.505 0.0450072 9.759 -0.000659472 10.025 7.19425e-06C10.291 0.000673861 10.5493 0.0466738 10.8 0.138007C11.0507 0.22934 11.2673 0.375007 11.45 0.575007L19.475 8.60001C19.675 8.78334 19.821 9.00001 19.913 9.25001C20.005 9.50001 20.0507 9.75834 20.05 10.025C20.0493 10.2917 20.0037 10.546 19.913 10.788C19.8223 11.03 19.6763 11.2507 19.475 11.45L11.45 19.475C11.2667 19.6583 11.05 19.8 10.8 19.9C10.55 20 10.2917 20.05 10.025 20.05C9.75833 20.05 9.505 20 9.263 19.9ZM10.738 10.738C10.9293 10.546 11.025 10.3083 11.025 10.025V6.02501C11.025 5.74167 10.929 5.50434 10.737 5.31301C10.545 5.12167 10.3077 5.02567 10.025 5.02501C9.74233 5.02434 9.505 5.12034 9.313 5.31301C9.121 5.50567 9.025 5.74301 9.025 6.02501V10.025C9.025 10.3083 9.121 10.546 9.313 10.738C9.505 10.93 9.74233 11.0257 10.025 11.025C10.3077 11.0243 10.5453 10.9283 10.738 10.737M10.738 13.737C10.9293 13.5463 11.025 13.309 11.025 13.025C11.025 12.741 10.929 12.5037 10.737 12.313C10.545 12.1223 10.3077 12.0263 10.025 12.025C9.74233 12.0237 9.505 12.1197 9.313 12.313C9.121 12.5063 9.025 12.7437 9.025 13.025C9.025 13.3063 9.121 13.544 9.313 13.738C9.505 13.932 9.74233 14.0277 10.025 14.025C10.3077 14.0223 10.5453 13.9263 10.738 13.737Z" fill="white"/>
</svg>
