<svg width="22" height="22" viewBox="0 0 22 22" fill="none" xmlns="http://www.w3.org/2000/svg">
<path fill-rule="evenodd" clip-rule="evenodd" d="M4.135 1.50026C3.232 1.50026 2.5 2.23226 2.5 3.13526V10.0003H20.75C20.9489 10.0003 21.1397 10.0793 21.2803 10.2199C21.421 10.3606 21.5 10.5513 21.5 10.7503C21.5 10.9492 21.421 11.1399 21.2803 11.2806C21.1397 11.4212 20.9489 11.5003 20.75 11.5003H20.482C20.4887 11.5449 20.4933 11.5903 20.496 11.6363C20.4993 11.6949 20.5007 11.7549 20.5 11.8163V11.8553C20.5 12.2303 20.5 12.4503 20.484 12.6953C20.342 14.9313 19.134 16.9973 17.383 18.3473L17.421 18.4153L18.421 20.4153C18.4659 20.5035 18.4929 20.5997 18.5004 20.6984C18.508 20.7971 18.4959 20.8963 18.4649 20.9903C18.4339 21.0843 18.3846 21.1712 18.3199 21.2461C18.2551 21.321 18.1762 21.3823 18.0876 21.4265C17.9991 21.4707 17.9026 21.497 17.8039 21.5037C17.7051 21.5105 17.606 21.4976 17.5122 21.4659C17.4185 21.4342 17.3319 21.3842 17.2576 21.3189C17.1832 21.2536 17.1225 21.1742 17.079 21.0853L16.111 19.1503C15.1105 19.6614 14.0063 19.9368 12.883 19.9553H12.876C12.136 19.9833 11.412 20.0003 10.75 20.0003C10.088 20.0003 9.364 19.9833 8.624 19.9553H8.617C7.49366 19.9368 6.38946 19.6614 5.389 19.1503L4.421 21.0853C4.37748 21.1742 4.31679 21.2536 4.24243 21.3189C4.16807 21.3842 4.08152 21.4342 3.98775 21.4659C3.89399 21.4976 3.79488 21.5105 3.69613 21.5037C3.59738 21.497 3.50094 21.4707 3.41239 21.4265C3.32383 21.3823 3.2449 21.321 3.18014 21.2461C3.11539 21.1712 3.0661 21.0843 3.03511 20.9903C3.00411 20.8963 2.99204 20.7971 2.99957 20.6984C3.0071 20.5997 3.0341 20.5035 3.079 20.4153L4.079 18.4153L4.117 18.3473C2.366 16.9973 1.157 14.9313 1.016 12.6953C1.00162 12.4155 0.996282 12.1354 1 11.8553V11.5003H0.75C0.551088 11.5003 0.360322 11.4212 0.21967 11.2806C0.0790177 11.1399 0 10.9492 0 10.7503C0 10.5513 0.0790177 10.3606 0.21967 10.2199C0.360322 10.0793 0.551088 10.0003 0.75 10.0003H1V3.13526C0.999941 2.40661 1.2537 1.70069 1.71766 1.13883C2.18162 0.576983 2.82681 0.194292 3.54232 0.0565387C4.25784 -0.0812151 4.99899 0.0345724 5.63839 0.384C6.2778 0.733427 6.77552 1.29467 7.046 1.97126L7.156 2.24626C7.97668 2.03652 8.84367 2.10403 9.622 2.43826C10.1066 2.64695 10.5447 2.95014 10.9108 3.33012C11.2769 3.71009 11.5635 4.15922 11.754 4.65126C11.8252 4.83243 11.8232 5.03419 11.7483 5.21389C11.6735 5.3936 11.5317 5.53717 11.353 5.61426L5.393 8.18026C5.30075 8.22011 5.20143 8.24102 5.10095 8.24174C5.00046 8.24246 4.90086 8.22298 4.80804 8.18446C4.71523 8.14593 4.63111 8.08915 4.56067 8.01748C4.49023 7.94582 4.43491 7.86072 4.398 7.76726C4.00521 6.76749 4.01237 5.65489 4.418 4.66026C4.7035 3.95205 5.18111 3.33764 5.797 2.88626L5.653 2.52826C5.53168 2.22483 5.32222 1.96472 5.05164 1.78148C4.78106 1.59824 4.46178 1.50029 4.135 1.50026ZM2.833 11.5003H2.733C2.66969 11.5046 2.61038 11.5328 2.56711 11.5792C2.52385 11.6257 2.49985 11.6868 2.5 11.7503V11.8333C2.5 12.2353 2.5 12.4073 2.513 12.6003C2.698 15.5223 5.208 18.1283 8.12 18.4233C8.315 18.4433 8.423 18.4463 8.68 18.4563C9.408 18.4833 10.113 18.5003 10.75 18.5003C11.387 18.5003 12.092 18.4833 12.82 18.4563C13.077 18.4463 13.185 18.4423 13.38 18.4223C16.292 18.1283 18.802 15.5223 18.988 12.6003C19 12.4073 19 12.2353 19 11.8333V11.7343C19 11.7323 19 11.7323 19 11.7343C18.996 11.6736 18.97 11.6165 18.9269 11.5736C18.8839 11.5307 18.8267 11.505 18.766 11.5013C18.7673 11.5013 18.7673 11.5013 18.766 11.5013H18.75L18.668 11.5003H2.833ZM9.033 3.81826C8.71939 3.6837 8.38032 3.61876 8.03918 3.62791C7.69805 3.63706 7.36295 3.72008 7.057 3.87126C6.48729 4.15256 6.04197 4.63493 5.807 5.22526C5.64936 5.61364 5.58431 6.03339 5.617 6.45126L9.997 4.56526C9.74507 4.23727 9.41266 3.97995 9.032 3.81826" fill="#CC008F"/>
</svg>
