<svg width="24" height="24" viewBox="0 0 24 24" fill="none" xmlns="http://www.w3.org/2000/svg">
<g clip-path="url(#clip0_222_439)">
<path d="M10.2501 7.41643C5.20257 8.76893 6.37607 12.6514 11.0451 16.7754C11.7756 17.4454 12.0001 17.7579 12.0001 18.6454V22.7499C17.1286 22.7499 21.5431 19.1269 22.5436 14.0969C23.5441 9.06693 20.8521 4.02993 16.1141 2.06793C11.3761 0.105935 5.91107 1.76293 3.06207 6.02693C1.74261 8.00174 1.11428 10.3579 1.2752 12.7275C1.43612 15.0971 2.37723 17.3467 3.95157 19.1249" stroke="white" stroke-linecap="round" stroke-linejoin="round"/>
<path d="M13.7501 7.4165C18.7976 8.769 17.6241 12.652 12.9551 16.7755" stroke="white" stroke-linecap="round" stroke-linejoin="round"/>
<path d="M5.10791 22.75C6.21248 22.75 7.10791 21.8546 7.10791 20.75C7.10791 19.6454 6.21248 18.75 5.10791 18.75C4.00334 18.75 3.10791 19.6454 3.10791 20.75C3.10791 21.8546 4.00334 22.75 5.10791 22.75Z" stroke="white" stroke-linecap="round" stroke-linejoin="round"/>
</g>
<defs>
<clipPath id="clip0_222_439">
<rect width="24" height="24" fill="white"/>
</clipPath>
</defs>
</svg>
