<svg width="16" height="22" viewBox="0 0 16 22" fill="none" xmlns="http://www.w3.org/2000/svg">
<path d="M7.75 0L6.78125 1.085C6.78125 1.085 5.12792 2.95792 3.46167 5.38625C1.79542 7.81458 0 10.7208 0 13.5108C0 15.5663 0.816516 17.5375 2.26992 18.9909C3.72333 20.4443 5.69457 21.2608 7.75 21.2608C9.80543 21.2608 11.7767 20.4443 13.2301 18.9909C14.6835 17.5375 15.5 15.5663 15.5 13.5108C15.5 10.7208 13.7046 7.81458 12.0383 5.38625C10.3721 2.95792 8.71875 1.085 8.71875 1.085L7.75 0ZM7.75 4.04292C8.31833 4.71458 8.835 5.27 9.92 6.84583C11.4829 9.11917 12.9167 12.0125 12.9167 13.5108C12.9167 16.3783 10.6175 18.6775 7.75 18.6775C4.8825 18.6775 2.58333 16.3783 2.58333 13.5108C2.58333 12.0125 4.01708 9.11917 5.58 6.84583C6.665 5.27 7.18167 4.71458 7.75 4.04292Z" fill="#149500"/>
</svg>
