<svg width="37" height="34" viewBox="0 0 37 34" fill="none" xmlns="http://www.w3.org/2000/svg">
<path d="M3.33333 33.3333C2.41667 33.3333 1.63222 33.0072 0.98 32.355C0.327778 31.7028 0.00111111 30.9178 0 30V10C0 9.08333 0.326667 8.29889 0.98 7.64667C1.63333 6.99444 2.41778 6.66778 3.33333 6.66667H8.58333L11.6667 3.33333H21.6667V6.66667H13.125L10.0833 10H3.33333V30H30V15H33.3333V30C33.3333 30.9167 33.0072 31.7017 32.355 32.355C31.7028 33.0083 30.9178 33.3344 30 33.3333H3.33333ZM30 10V6.66667H26.6667V3.33333H30V0H33.3333V3.33333H36.6667V6.66667H33.3333V10H30ZM16.6667 27.5C18.75 27.5 20.5211 26.7711 21.98 25.3133C23.4389 23.8556 24.1678 22.0844 24.1667 20C24.1656 17.9156 23.4367 16.145 21.98 14.6883C20.5233 13.2317 18.7522 12.5022 16.6667 12.5C14.5811 12.4978 12.8106 13.2272 11.355 14.6883C9.89945 16.1494 9.17 17.92 9.16667 20C9.16333 22.08 9.89278 23.8511 11.355 25.3133C12.8172 26.7756 14.5878 27.5044 16.6667 27.5ZM16.6667 24.1667C15.5 24.1667 14.5139 23.7639 13.7083 22.9583C12.9028 22.1528 12.5 21.1667 12.5 20C12.5 18.8333 12.9028 17.8472 13.7083 17.0417C14.5139 16.2361 15.5 15.8333 16.6667 15.8333C17.8333 15.8333 18.8194 16.2361 19.625 17.0417C20.4306 17.8472 20.8333 18.8333 20.8333 20C20.8333 21.1667 20.4306 22.1528 19.625 22.9583C18.8194 23.7639 17.8333 24.1667 16.6667 24.1667Z" fill="#0066CC"/>
</svg>
