<svg width="21" height="22" viewBox="0 0 21 22" fill="none" xmlns="http://www.w3.org/2000/svg">
<path d="M7 0C7.30942 0 7.60616 0.121992 7.82496 0.339139C8.04375 0.556287 8.16667 0.850802 8.16667 1.15789V2.31579H12.8333V1.15789C12.8333 0.850802 12.9562 0.556287 13.175 0.339139C13.3938 0.121992 13.6906 0 14 0C14.3094 0 14.6062 0.121992 14.825 0.339139C15.0437 0.556287 15.1667 0.850802 15.1667 1.15789V2.31579H18.6667C19.2855 2.31579 19.879 2.55977 20.3166 2.99407C20.7542 3.42836 21 4.01739 21 4.63158V19.6842C21 20.2984 20.7542 20.8874 20.3166 21.3217C19.879 21.756 19.2855 22 18.6667 22H2.33333C1.71449 22 1.121 21.756 0.683417 21.3217C0.245833 20.8874 0 20.2984 0 19.6842V4.63158C0 4.01739 0.245833 3.42836 0.683417 2.99407C1.121 2.55977 1.71449 2.31579 2.33333 2.31579H5.83333V1.15789C5.83333 0.850802 5.95625 0.556287 6.17504 0.339139C6.39383 0.121992 6.69058 0 7 0ZM5.83333 4.63158H2.33333V8.10526H18.6667V4.63158H15.1667V5.78947C15.1667 6.09657 15.0437 6.39108 14.825 6.60823C14.6062 6.82538 14.3094 6.94737 14 6.94737C13.6906 6.94737 13.3938 6.82538 13.175 6.60823C12.9562 6.39108 12.8333 6.09657 12.8333 5.78947V4.63158H8.16667V5.78947C8.16667 6.09657 8.04375 6.39108 7.82496 6.60823C7.60616 6.82538 7.30942 6.94737 7 6.94737C6.69058 6.94737 6.39383 6.82538 6.17504 6.60823C5.95625 6.39108 5.83333 6.09657 5.83333 5.78947V4.63158ZM18.6667 10.4211H2.33333V19.6842H18.6667V10.4211Z" fill="#7C7C7C"/>
</svg>
