<svg width="24" height="25" viewBox="0 0 24 25" fill="none" xmlns="http://www.w3.org/2000/svg">
<path fill-rule="evenodd" clip-rule="evenodd" d="M10.4 0.528C10.8616 0.18527 11.423 0 12 0C12.577 0 13.1384 0.18527 13.6 0.528L22.9333 7.458C23.2645 7.70391 23.5333 8.02278 23.7185 8.38936C23.9036 8.75593 24 9.16015 24 9.57V22.11C24 22.8102 23.719 23.4817 23.219 23.9768C22.7189 24.4719 22.0406 24.75 21.3333 24.75H14.8C14.411 24.75 14.038 24.597 13.7629 24.3247C13.4879 24.0524 13.3333 23.6831 13.3333 23.298V15.51C13.3333 15.1599 13.1929 14.8242 12.9428 14.5766C12.6928 14.3291 12.3536 14.19 12 14.19C11.6464 14.19 11.3072 14.3291 11.0572 14.5766C10.8071 14.8242 10.6667 15.1599 10.6667 15.51V23.298C10.6667 23.4887 10.6287 23.6775 10.555 23.8537C10.4813 24.0298 10.3733 24.1899 10.2371 24.3247C10.1009 24.4596 9.93921 24.5665 9.76127 24.6395C9.58332 24.7124 9.3926 24.75 9.2 24.75H2.66667C1.95942 24.75 1.28115 24.4719 0.781048 23.9768C0.280951 23.4817 0 22.8102 0 22.11V9.57C0 9.16015 0.096387 8.75593 0.281528 8.38936C0.466668 8.02278 0.735477 7.70391 1.06667 7.458L10.4 0.528ZM12 2.64L2.66667 9.57V22.11H8V15.51C8 14.4597 8.42143 13.4525 9.17157 12.7099C9.92172 11.9672 10.9391 11.55 12 11.55C13.0609 11.55 14.0783 11.9672 14.8284 12.7099C15.5786 13.4525 16 14.4597 16 15.51V22.11H21.3333V9.57L12 2.64Z" fill="#0066CC"/>
</svg>
